<svg width="150" height="120" viewBox="0 0 150 120" fill="none" xmlns="http://www.w3.org/2000/svg">
<path d="M105.183 59.9717C115.377 59.9717 125.293 59.9717 135.204 59.9717C138.84 59.9717 142.481 60.0012 146.117 59.9599C148.65 59.9304 149.966 61.046 149.966 63.649C149.954 81.1501 149.942 98.6513 149.984 116.152C149.984 118.791 148.673 119.971 146.212 119.977C128.711 120.001 111.21 119.995 93.7087 119.977C91.1883 119.977 89.8838 118.637 89.9015 116.129C90.0432 95.393 89.5651 74.6219 90.5685 53.9215C91.2532 39.9265 98.5606 28.5464 109.964 20.3241C119.113 13.7191 128.652 7.64534 138.078 1.42993C141.909 -1.09637 146.365 -0.16967 148.697 3.37778C151.07 6.98425 150.178 11.2695 146.318 13.8844C137.7 19.7161 128.97 25.3885 120.376 31.2616C110.944 37.7072 105.809 46.685 105.095 58.1242C105.065 58.6023 105.136 59.0922 105.177 59.9599L105.183 59.9717Z" fill="black"/>
<path d="M15.0279 59.9705C18.4573 59.9705 21.5798 59.9705 24.7022 59.9705C35.0257 59.9705 45.3493 59.9646 55.6728 59.9705C59.0963 59.9705 60.0643 60.8795 60.0702 64.3266C60.0997 81.4323 60.0997 98.538 60.0702 115.644C60.0643 118.99 59.0196 119.982 55.5725 119.982C38.5673 120.006 21.5561 120.006 4.55092 119.982C0.938565 119.982 0.0590863 119.038 0.0590863 115.419C0.0531838 96.838 -0.0943798 78.2567 0.100404 59.6754C0.27748 42.8294 7.37234 29.3125 21.0721 19.532C29.7784 13.3165 38.8152 7.55563 47.7398 1.65896C51.8539 -1.05623 56.4697 -0.235772 58.8484 3.47695C61.1504 7.07752 60.0525 11.4336 56.0034 14.1606C47.6159 19.8153 39.1575 25.3519 30.7818 31.0125C20.7298 37.8122 15.5001 47.3036 15.0338 59.9646L15.0279 59.9705Z" fill="black"/>
</svg>
